<?xml version="1.0" encoding="UTF-8" standalone="no"?>
<svg width="105px" height="104px" viewBox="0 0 105 104" version="1.1" xmlns="http://www.w3.org/2000/svg" xmlns:xlink="http://www.w3.org/1999/xlink" xmlns:sketch="http://www.bohemiancoding.com/sketch/ns">
    <!-- Generator: Sketch 3.3.2 (12043) - http://www.bohemiancoding.com/sketch -->
    <title>clover_F</title>
    <desc>Created with Sketch.</desc>
    <defs></defs>
    <g id="Page-1" stroke="none" stroke-width="1" fill="none" fill-rule="evenodd" sketch:type="MSPage">
        <g id="iPhone-6" sketch:type="MSArtboardGroup" transform="translate(-135.000000, -86.000000)" fill="#2E937D">
            <path d="M187.5,133.272727 C187.5,133.272727 226.25617,103.378652 216.178788,90.2975207 C207.923367,79.5814178 187.5,97.045467 187.5,97.045467 C187.5,97.045467 168.115977,78.1546406 158.05325,90.2975207 C147.990524,102.440401 187.5,133.272727 187.5,133.272727 Z M187.507868,142.499658 C187.507868,142.499658 226.273961,172.537672 216.193999,185.681787 C207.936464,196.449487 187.507867,178.90135 187.507867,178.90135 C187.507867,178.90135 168.118881,197.883134 158.053578,185.681787 C147.988275,173.48044 187.507868,142.499658 187.507868,142.499658 Z M192.000749,138.015731 C192.000749,138.015731 221.894825,176.771901 234.975956,166.694519 C245.692058,158.439098 228.228009,138.015731 228.228009,138.015731 C228.228009,138.015731 247.118836,118.631708 234.975956,108.568981 C222.833075,98.506255 192.000749,138.015731 192.000749,138.015731 Z M182.999251,137.984269 C182.999251,137.984269 153.105175,99.2280993 140.024044,109.305481 C129.307942,117.560902 146.771991,137.984269 146.771991,137.984269 C146.771991,137.984269 127.881164,157.368292 140.024044,167.431019 C152.166925,177.493745 182.999251,137.984269 182.999251,137.984269 Z" id="clover_F" sketch:type="MSShapeGroup" transform="translate(187.500000, 138.000000) rotate(-270.000000) translate(-187.500000, -138.000000) "></path>
        </g>
    </g>
</svg>